<!-- icon666.com - MILLIONS vector ICONS FREE --><svg clip-rule="evenodd" fill-rule="evenodd" image-rendering="optimizeQuality" shape-rendering="geometricPrecision" text-rendering="geometricPrecision" viewBox="0 0 43.3492 43.3492" xmlns="http://www.w3.org/2000/svg"><g id="Layer_x0020_1"><g id="XMLID_1_"><path id="_273876272" d="m21.6849 14.1173c4.1617 0 7.547 3.3852 7.547 7.5469 0 4.1618-3.3853 7.547-7.547 7.547s-7.5469-3.3852-7.5469-7.547c-.0104-4.1617 3.3852-7.5469 7.5469-7.5469z"></path><path id="_43742944" d="m43.2595 24.3662c.0932.4866.1346 1.1802.0207 2.0706-.383 3.054-2.3603 6.522-6.7498 7.1018-1.3251.0207-2.5881-.3209-3.6441-.9939-.1553-.0932-.352-.0724-.4866.0518-1.615 1.5839-3.6026 2.8159-5.7352 3.5509-.1864.0621-.2899.2485-.2589.4452.1657.9214.6212 1.7185 1.4287 2.4846 2.3811 2.3086 4.9278 1.3355 7.2053-.2381-.2795.4037-.735.9317-1.4493 1.4804-2.4329 1.8841-6.284 2.9401-9.8038.2484-.9525-.9214-1.6046-2.0601-1.8738-3.2817-.0414-.176-.1967-.3002-.383-.3106-2.2983-.0207-4.5034-.5383-6.5635-1.5425-.176-.0828-.3831-.0311-.497.1346-.5383.7764-.7764 1.6564-.7453 2.7641.0517 3.3128 2.5363 4.4309 5.2694 4.9278-.4866.0932-1.1802.1346-2.0705.0207-3.054-.383-6.5221-2.3604-7.1018-6.7499-.0207-1.3251.3209-2.5881.9938-3.6441.0932-.1553.0725-.3519-.0517-.4865-1.5839-1.615-2.8159-3.6027-3.5509-5.7353-.0622-.1863-.2485-.2899-.4452-.2588-.9214.1656-1.7185.6211-2.4846 1.4286-2.3086 2.3811-1.3355 4.9278.2381 7.2054-.4038-.2692-.9214-.735-1.4804-1.4494-1.8842-2.4328-2.9401-6.2839-.2485-9.8038.9214-.9524 2.0602-1.6046 3.2818-1.8738.176-.0414.3002-.1967.3002-.383.0207-2.2983.5487-4.5137 1.5425-6.5635.0828-.176.0311-.3831-.1345-.4969-.7765-.5384-1.6564-.7661-2.7642-.7454-3.3128.0517-4.4308 2.5363-4.9278 5.2591-.0931-.4866-.1345-1.1699-.0207-2.0706.3831-3.054 2.3604-6.522 6.7499-7.1018h.1035c1.2837 0 2.5156.3416 3.5405.9939.1553.0932.352.0724.4866-.0518 1.615-1.5839 3.6027-2.8159 5.7353-3.5509.1863-.0621.2898-.2485.2588-.4452-.1656-.9214-.6212-1.7185-1.4287-2.4846-2.381-2.3086-4.9277-1.3355-7.2053.2381.2795-.4037.735-.9317 1.4494-1.4804 2.4328-1.8841 6.2839-2.9401 9.8038-.2484.9524.9214 1.6046 2.0601 1.8737 3.2817.0415.176.1967.3002.3831.3106 2.2982.0207 4.5033.5383 6.5635 1.5425.176.0828.383.0311.4969-.1346.5383-.7764.7765-1.6564.7454-2.7641-.0518-3.3128-2.5364-4.4309-5.2591-4.9278.4866-.0932 1.1802-.1346 2.0705-.0207 3.054.383 6.5221 2.3604 7.1018 6.7499.0207 1.3251-.3209 2.5881-.9938 3.6441-.0932.1553-.0725.3519.0517.4865 1.584 1.615 2.8159 3.6027 3.551 5.7353.0621.1864.2484.2899.4451.2588.9214-.1656 1.7185-.6211 2.4846-1.4286 2.3086-2.3811 1.3355-4.9278-.2381-7.2054.4038.2795.9214.735 1.4804 1.4494 1.8842 2.4328 2.9401 6.2839.2485 9.8038-.9214.9524-2.0602 1.6046-3.2818 1.8738-.1759.0414-.3002.1967-.3105.383-.0207 2.2983-.5384 4.5137-1.5426 6.5635-.0828.176-.031.3831.1346.4969.7765.5384 1.6564.7765 2.7641.7454 3.3232-.0517 4.4309-2.5363 4.9278-5.2591zm-13.2408-2.702c0-4.5965-3.7372-8.3337-8.3338-8.3337-4.5965 0-8.3337 3.7372-8.3337 8.3337 0 4.5966 3.7372 8.3338 8.3337 8.3338 4.5966.0104 8.3338-3.7372 8.3338-8.3338z"></path></g></g></svg>